<svg xmlns="http://www.w3.org/2000/svg" xmlns:xlink="http://www.w3.org/1999/xlink" width="1200" height="630" viewBox="0 0 1200 630">
  <defs>
    <pattern id="grid" width="32" height="32" patternUnits="userSpaceOnUse"><path d="M32 0H0V32" fill="none" stroke="#d9dfdc" stroke-width="1" opacity=".45"/></pattern>
    <style>
      text { font-family: "Arial", "Helvetica", sans-serif; fill: #182522; }
      .eyebrow { font-size: 18px; font-weight: 700; letter-spacing: 3px; fill: #24706b; }
      .title { font-family: "Georgia", serif; font-size: 56px; font-weight: 700; }
      .count { font-size: 24px; font-weight: 700; fill: #c74634; }
      .word { font-weight: 700; fill: #3e514d; }
    .legend { font-size: 11px; font-weight: 700; fill: #4e5e5a; }
    .logo-mark text { font-size: 8px; font-weight: 800; fill: white; }
      .chart-label { font-size: 15px; font-weight: 700; letter-spacing: 1px; fill: #65736f; }
      .chart-total { font-family: "Georgia", serif; font-size: 44px; font-weight: 700; }
      .chart-note { font-size: 13px; fill: #65736f; }
    </style>
  </defs>
  <rect width="1200" height="630" fill="#f4f2ec"/>
  <rect width="1200" height="630" fill="url(#grid)"/>
  <rect x="0" y="0" width="18" height="630" fill="#24706b"/>
    <text x="70" y="76" class="eyebrow">FRANCK PACHOT · DATABASE BLOG ARCHIVE</text>
    <text x="70" y="150" class="title">Database blog posts</text>
    <text x="70" y="205" class="title">by Franck Pachot</text>
    <text x="70" y="252" class="count">1,326 posts · over 12 years</text>
  <text x="70" y="325" class="word" font-size="32">INDEXES</text>
  <text x="285" y="325" class="word" font-size="20">QUERY PLANS</text>
  <text x="90" y="368" class="word" font-size="22">MVCC</text>
  <text x="190" y="368" class="word" font-size="29">DISTRIBUTED SQL</text>
  <text x="70" y="412" class="word" font-size="19">REPLICATION</text>
  <text x="230" y="412" class="word" font-size="24">TRANSACTIONS</text>
  <text x="86" y="453" class="word" font-size="27">STORAGE</text>
  <text x="230" y="453" class="word" font-size="18">OBSERVABILITY</text>
  <text x="70" y="492" class="word" font-size="18">MIGRATION</text>
  <text x="190" y="492" class="word" font-size="24">VECTOR SEARCH</text>
  <text x="92" y="530" class="word" font-size="20">JSON</text>
  <text x="160" y="530" class="word" font-size="28">PERFORMANCE</text>
    <text x="865" y="67" text-anchor="middle" class="chart-label">POSTS BY DATABASE · ALL TAGS</text>
    <g transform="rotate(-90 865 250)"><circle cx="865" cy="250" r="140" fill="none" stroke="#c74634" stroke-width="52" stroke-dasharray="300.11 579.54" stroke-dashoffset="-0.00"/><circle cx="865" cy="250" r="140" fill="none" stroke="#336791" stroke-width="52" stroke-dasharray="245.54 634.10" stroke-dashoffset="-300.11"/><circle cx="865" cy="250" r="140" fill="none" stroke="#ff5f3b" stroke-width="52" stroke-dasharray="179.98 699.67" stroke-dashoffset="-545.65"/><circle cx="865" cy="250" r="140" fill="none" stroke="#47a248" stroke-width="52" stroke-dasharray="62.49 817.16" stroke-dashoffset="-725.63"/><circle cx="865" cy="250" r="140" fill="none" stroke="#8c4fff" stroke-width="52" stroke-dasharray="29.04 850.60" stroke-dashoffset="-788.12"/><circle cx="865" cy="250" r="140" fill="none" stroke="#4053d6" stroke-width="52" stroke-dasharray="14.96 864.68" stroke-dashoffset="-817.16"/><circle cx="865" cy="250" r="140" fill="none" stroke="#4479a1" stroke-width="52" stroke-dasharray="14.08 865.56" stroke-dashoffset="-832.12"/><circle cx="865" cy="250" r="140" fill="none" stroke="#cc2927" stroke-width="52" stroke-dasharray="9.68 869.96" stroke-dashoffset="-846.20"/><circle cx="865" cy="250" r="140" fill="none" stroke="#c925d1" stroke-width="52" stroke-dasharray="6.16 873.49" stroke-dashoffset="-855.88"/><circle cx="865" cy="250" r="140" fill="none" stroke="#6933ff" stroke-width="52" stroke-dasharray="5.28 874.37" stroke-dashoffset="-862.04"/><circle cx="865" cy="250" r="140" fill="none" stroke="#0f62fe" stroke-width="52" stroke-dasharray="3.52 876.13" stroke-dashoffset="-867.32"/><circle cx="865" cy="250" r="140" fill="none" stroke="#1287b1" stroke-width="52" stroke-dasharray="3.52 876.13" stroke-dashoffset="-870.85"/><circle cx="865" cy="250" r="140" fill="none" stroke="#0078d4" stroke-width="52" stroke-dasharray="2.64 877.01" stroke-dashoffset="-874.37"/><circle cx="865" cy="250" r="140" fill="none" stroke="#003b57" stroke-width="52" stroke-dasharray="2.64 877.01" stroke-dashoffset="-877.01"/></g>
    <circle cx="865" cy="250" r="112" fill="#f4f2ec"/>
    <text x="865" y="242" text-anchor="middle" class="chart-total">1,999</text>
    <text x="865" y="270" text-anchor="middle" class="chart-note">database mentions</text>
    <text x="865" y="293" text-anchor="middle" class="chart-note">posts may have several tags</text>
  <rect x="655" y="423" width="24" height="24" rx="5" fill="white" opacity=".92"/><image href="database-logos/oracle.svg" x="657" y="425" width="20" height="20" preserveAspectRatio="xMidYMid meet"/><text x="684" y="440" class="legend">Oracle 682</text><rect x="833" y="423" width="24" height="24" rx="5" fill="white" opacity=".92"/><image href="database-logos/postgresql.svg" x="835" y="425" width="20" height="20" preserveAspectRatio="xMidYMid meet"/><text x="862" y="440" class="legend">PostgreSQL 558</text><rect x="1011" y="423" width="24" height="24" rx="5" fill="white" opacity=".92"/><image href="database-logos/yugabytedb.svg" x="1013" y="425" width="20" height="20" preserveAspectRatio="xMidYMid meet"/><text x="1040" y="440" class="legend">YugabyteDB 409</text><rect x="655" y="455" width="24" height="24" rx="5" fill="white" opacity=".92"/><image href="database-logos/mongodb.svg" x="657" y="457" width="20" height="20" preserveAspectRatio="xMidYMid meet"/><text x="684" y="472" class="legend">MongoDB 142</text><rect x="833" y="455" width="24" height="24" rx="5" fill="white" opacity=".92"/><image href="database-logos/aurora.svg" x="835" y="457" width="20" height="20" preserveAspectRatio="xMidYMid meet"/><text x="862" y="472" class="legend">Aurora 66</text><rect x="1011" y="455" width="24" height="24" rx="5" fill="white" opacity=".92"/><image href="database-logos/dynamodb.svg" x="1013" y="457" width="20" height="20" preserveAspectRatio="xMidYMid meet"/><text x="1040" y="472" class="legend">DynamoDB 34</text><rect x="655" y="487" width="24" height="24" rx="5" fill="white" opacity=".92"/><image href="database-logos/mysql.svg" x="657" y="489" width="20" height="20" preserveAspectRatio="xMidYMid meet"/><text x="684" y="504" class="legend">MySQL 32</text><rect x="833" y="487" width="24" height="24" rx="5" fill="white" opacity=".92"/><image href="database-logos/sql-server.svg" x="835" y="489" width="20" height="20" preserveAspectRatio="xMidYMid meet"/><text x="862" y="504" class="legend">SQL Server 22</text><rect x="1011" y="487" width="24" height="24" rx="5" fill="white" opacity=".92"/><image href="database-logos/documentdb.svg" x="1013" y="489" width="20" height="20" preserveAspectRatio="xMidYMid meet"/><text x="1040" y="504" class="legend">DocumentDB 14</text><rect x="655" y="519" width="24" height="24" rx="5" fill="white" opacity=".92"/><image href="database-logos/cockroachdb.svg" x="657" y="521" width="20" height="20" preserveAspectRatio="xMidYMid meet"/><text x="684" y="536" class="legend">CockroachDB 12</text><rect x="833" y="519" width="24" height="24" rx="5" fill="white" opacity=".92"/><image href="database-logos/db2.svg" x="835" y="521" width="20" height="20" preserveAspectRatio="xMidYMid meet"/><text x="862" y="536" class="legend">Db2 8</text><rect x="1011" y="519" width="24" height="24" rx="5" fill="white" opacity=".92"/><image href="database-logos/cassandra.svg" x="1013" y="521" width="20" height="20" preserveAspectRatio="xMidYMid meet"/><text x="1040" y="536" class="legend">Cassandra 8</text><rect x="655" y="551" width="24" height="24" rx="5" fill="white" opacity=".92"/><image href="database-logos/azure.svg" x="657" y="553" width="20" height="20" preserveAspectRatio="xMidYMid meet"/><text x="684" y="568" class="legend">HorizonDB 6</text><rect x="833" y="551" width="24" height="24" rx="5" fill="white" opacity=".92"/><image href="database-logos/sqlite.svg" x="835" y="553" width="20" height="20" preserveAspectRatio="xMidYMid meet"/><text x="862" y="568" class="legend">SQLite 6</text>
</svg>